<svg width="467" height="467" viewBox="0 0 467 467" fill="none" xmlns="http://www.w3.org/2000/svg">
<path d="M80.8 80.8C-3.62534 165.225 -3.62534 302.108 80.8 386.533C165.225 470.959 302.108 470.959 386.533 386.533C470.959 302.108 470.959 165.225 386.533 80.8C302.108 -3.62534 165.225 -3.62534 80.8 80.8Z" fill="url(#paint0_linear)"/>
<path d="M68.5973 68.5973C-22.4214 159.617 -22.4214 307.716 68.5973 398.736C159.617 489.755 307.716 489.755 398.736 398.736C489.755 307.716 489.755 159.617 398.736 68.5973C307.716 -22.4213 159.617 -22.4213 68.5973 68.5973ZM80.8 80.8C165.225 -3.62534 302.108 -3.62534 386.533 80.8C470.959 165.225 470.959 302.108 386.533 386.533C302.108 470.959 165.225 470.959 80.8 386.533C-3.62536 302.108 -3.62536 165.225 80.8 80.8Z" fill="white"/>
<path d="M199.821 293.344C199.861 293.245 199.9 293.147 199.939 293.048C200.975 290.424 201.347 287.804 201.26 285.273C188.297 295.987 174.501 302.836 162.603 304.852C164.617 292.955 171.467 279.16 182.177 266.197C179.639 266.109 177.009 266.485 174.377 267.525C174.259 267.572 174.14 267.62 174.021 267.667C165.433 271.117 157.276 276.405 150.184 283.497C134.945 298.736 128.041 318.899 129.777 337.677C148.555 339.412 168.717 332.508 183.956 317.269C191.072 310.153 196.371 301.964 199.821 293.344Z" fill="white"/>
<path d="M261.548 368.724L225.133 280.115L338.084 129.156L261.548 368.724Z" fill="white"/>
<path d="M338.084 129.156L187.324 242.305L98.4346 205.691L338.084 129.156Z" fill="white" fill-opacity="0.8"/>
<path d="M338.084 129.156L224.024 243.216L187.324 242.305L338.084 129.156Z" fill="white"/>
<path d="M225.133 280.115L224.024 243.216L338.084 129.156L225.133 280.115Z" fill="white" fill-opacity="0.8"/>
<defs>
<linearGradient id="paint0_linear" x1="233.667" y1="449.852" x2="233.667" y2="17.481" gradientUnits="userSpaceOnUse">
<stop stop-color="#002586"/>
<stop offset="1" stop-color="#4280DD"/>
</linearGradient>
</defs>
</svg>
