<?xml version="1.0" standalone="no"?>
<!DOCTYPE svg PUBLIC "-//W3C//DTD SVG 20010904//EN"
 "http://www.w3.org/TR/2001/REC-SVG-20010904/DTD/svg10.dtd">
<svg version="1.0" xmlns="http://www.w3.org/2000/svg"
 width="700.000000pt" height="700.000000pt" viewBox="0 0 700.000000 700.000000"
 preserveAspectRatio="xMidYMid meet">
<metadata>
Created by potrace 1.14, written by Peter Selinger 2001-2017
</metadata>
<g transform="translate(0.000000,700.000000) scale(0.100000,-0.100000)"
fill="#000000" stroke="none">
<path d="M3292 6729 c-811 -55 -1567 -407 -2124 -988 -506 -528 -804 -1173
-889 -1921 -18 -152 -15 -528 4 -686 91 -742 409 -1402 922 -1919 512 -515
1144 -827 1885 -932 192 -27 664 -24 857 5 534 81 1010 269 1428 566 682 483
1160 1229 1310 2041 42 232 50 327 49 615 0 334 -18 485 -94 790 -257 1027
-1034 1884 -2036 2244 -410 147 -885 214 -1312 185z m1202 -3458 c-313 -980
-571 -1781 -574 -1781 -3 0 -126 293 -273 652 l-268 652 -9 261 c-5 143 -10
269 -10 281 0 20 -5 21 -274 27 l-274 6 -661 273 c-363 149 -659 273 -657 275
7 7 3561 1141 3565 1137 2 -2 -252 -804 -565 -1783z m-1817 -331 c-74 -97
-139 -210 -180 -310 -38 -93 -64 -186 -55 -196 9 -8 122 25 208 61 89 38 211
109 289 168 83 63 79 63 70 4 -11 -67 -83 -213 -150 -302 -146 -192 -333 -322
-565 -391 -68 -20 -119 -27 -216 -31 l-127 -6 -7 38 c-9 48 11 223 37 316 72
265 289 527 539 654 74 37 149 64 182 65 27 0 27 0 -25 -70z"/>
</g>
</svg>
